<?xml version="1.0" encoding="UTF-8"?>
<svg width="297mm" height="210mm" viewBox="0 0 297 210" xmlns="http://www.w3.org/2000/svg">
  
  <!-- A4 Page Border -->
  <rect x="5" y="5" width="287" height="200" fill="none" stroke="black" stroke-width="1"/>
  
  <!-- Title -->
  <text x="148.5" y="15" text-anchor="middle" font-family="Arial" font-size="12" font-weight="bold">
    ChoreTracker A4 Template - REDESIGNED COMPACT LAYOUT
  </text>
  <text x="148.5" y="27" text-anchor="middle" font-family="Arial" font-size="10">
    Layout: Buttons-Displays-Select-Displays-Buttons (B-D-S-D-B)
  </text>
  
  <!-- BUTTONS ROW 1 (Top) -->
  
  <!-- Button 0 -->
  <g id="button0">
    <rect x="34.95" y="25" width="18" height="18" fill="white" stroke="purple" stroke-width="2"/>
    <circle cx="43.95" cy="34" r="8" fill="none" stroke="purple" stroke-width="1" stroke-dasharray="2,2"/>
    <text x="43.95" y="37" text-anchor="middle" font-family="Arial" font-size="6">B0</text>
  </g>
  
  <!-- Button 1 -->
  <g id="button1">
    <rect x="97.85" y="25" width="18" height="18" fill="white" stroke="purple" stroke-width="2"/>
    <circle cx="106.85" cy="34" r="8" fill="none" stroke="purple" stroke-width="1" stroke-dasharray="2,2"/>
    <text x="106.85" y="37" text-anchor="middle" font-family="Arial" font-size="6">B1</text>
  </g>
  
  <!-- Button 2 -->
  <g id="button2">
    <rect x="160.75" y="25" width="18" height="18" fill="white" stroke="purple" stroke-width="2"/>
    <circle cx="169.75" cy="34" r="8" fill="none" stroke="purple" stroke-width="1" stroke-dasharray="2,2"/>
    <text x="169.75" y="37" text-anchor="middle" font-family="Arial" font-size="6">B2</text>
  </g>
  
  <!-- Button 3 -->
  <g id="button3">
    <rect x="223.65" y="25" width="18" height="18" fill="white" stroke="purple" stroke-width="2"/>
    <circle cx="232.65" cy="34" r="8" fill="none" stroke="purple" stroke-width="1" stroke-dasharray="2,2"/>
    <text x="232.65" y="37" text-anchor="middle" font-family="Arial" font-size="6">B3</text>
  </g>
  
  <!-- SCREENS ROW 1 -->
  
  <!-- Display 0 -->
  <g id="display0">
    <rect x="15" y="50" width="57.9" height="29" fill="white" stroke="blue" stroke-width="2"/>
    <text x="43.95" y="67" text-anchor="middle" font-family="Arial" font-size="8" font-weight="bold">D0</text>
    <!-- Mounting holes (1.5mm from edges) -->
    <circle cx="16.5" cy="51.5" r="1" fill="white" stroke="red" stroke-width="1"/>
    <circle cx="71.4" cy="51.5" r="1" fill="white" stroke="red" stroke-width="1"/>
    <circle cx="16.5" cy="77.5" r="1" fill="white" stroke="red" stroke-width="1"/>
    <circle cx="71.4" cy="77.5" r="1" fill="white" stroke="red" stroke-width="1"/>
    <!-- Pin holes (left side, back connector) -->
    <circle cx="10" cy="61" r="1.5" fill="white" stroke="green" stroke-width="1.5"/>
    <circle cx="10" cy="64" r="1.5" fill="white" stroke="green" stroke-width="1.5"/>
    <circle cx="10" cy="67" r="1.5" fill="white" stroke="green" stroke-width="1.5"/>
  </g>
  
  <!-- Display 1 -->
  <g id="display1">
    <rect x="77.9" y="50" width="57.9" height="29" fill="white" stroke="blue" stroke-width="2"/>
    <text x="106.85" y="67" text-anchor="middle" font-family="Arial" font-size="8" font-weight="bold">D1</text>
    <circle cx="79.4" cy="51.5" r="1" fill="white" stroke="red" stroke-width="1"/>
    <circle cx="134.3" cy="51.5" r="1" fill="white" stroke="red" stroke-width="1"/>
    <circle cx="79.4" cy="77.5" r="1" fill="white" stroke="red" stroke-width="1"/>
    <circle cx="134.3" cy="77.5" r="1" fill="white" stroke="red" stroke-width="1"/>
    <circle cx="72.9" cy="61" r="1.5" fill="white" stroke="green" stroke-width="1.5"/>
    <circle cx="72.9" cy="64" r="1.5" fill="white" stroke="green" stroke-width="1.5"/>
    <circle cx="72.9" cy="67" r="1.5" fill="white" stroke="green" stroke-width="1.5"/>
  </g>
  
  <!-- Display 2 -->
  <g id="display2">
    <rect x="140.8" y="50" width="57.9" height="29" fill="white" stroke="blue" stroke-width="2"/>
    <text x="169.75" y="67" text-anchor="middle" font-family="Arial" font-size="8" font-weight="bold">D2</text>
    <circle cx="142.3" cy="51.5" r="1" fill="white" stroke="red" stroke-width="1"/>
    <circle cx="197.2" cy="51.5" r="1" fill="white" stroke="red" stroke-width="1"/>
    <circle cx="142.3" cy="77.5" r="1" fill="white" stroke="red" stroke-width="1"/>
    <circle cx="197.2" cy="77.5" r="1" fill="white" stroke="red" stroke-width="1"/>
    <circle cx="135.8" cy="61" r="1.5" fill="white" stroke="green" stroke-width="1.5"/>
    <circle cx="135.8" cy="64" r="1.5" fill="white" stroke="green" stroke-width="1.5"/>
    <circle cx="135.8" cy="67" r="1.5" fill="white" stroke="green" stroke-width="1.5"/>
  </g>
  
  <!-- Display 3 -->
  <g id="display3">
    <rect x="203.7" y="50" width="57.9" height="29" fill="white" stroke="blue" stroke-width="2"/>
    <text x="232.65" y="67" text-anchor="middle" font-family="Arial" font-size="8" font-weight="bold">D3</text>
    <circle cx="205.2" cy="51.5" r="1" fill="white" stroke="red" stroke-width="1"/>
    <circle cx="260.1" cy="51.5" r="1" fill="white" stroke="red" stroke-width="1"/>
    <circle cx="205.2" cy="77.5" r="1" fill="white" stroke="red" stroke-width="1"/>
    <circle cx="260.1" cy="77.5" r="1" fill="white" stroke="red" stroke-width="1"/>
    <circle cx="198.7" cy="61" r="1.5" fill="white" stroke="green" stroke-width="1.5"/>
    <circle cx="198.7" cy="64" r="1.5" fill="white" stroke="green" stroke-width="1.5"/>
    <circle cx="198.7" cy="67" r="1.5" fill="white" stroke="green" stroke-width="1.5"/>
  </g>
  
  <!-- SELECT BUTTONS (Between rows, at screen 1 and screen 4 positions) -->
  
  <!-- Row 1 Select Button (at screen 1 position) -->
  <circle cx="43.95" cy="90" r="14.5" fill="white" stroke="orange" stroke-width="3"/>
  <circle cx="43.95" cy="90" r="14.5" fill="none" stroke="orange" stroke-width="1" stroke-dasharray="3,3"/>
  <text x="43.95" y="94" text-anchor="middle" font-family="Arial" font-size="8" font-weight="bold">R1</text>
  <text x="43.95" y="108" text-anchor="middle" font-family="Arial" font-size="5">29mm hole</text>
  
  <!-- Row 2 Select Button (at screen 4 position) -->
  <circle cx="232.65" cy="90" r="14.5" fill="white" stroke="orange" stroke-width="3"/>
  <circle cx="232.65" cy="90" r="14.5" fill="none" stroke="orange" stroke-width="1" stroke-dasharray="3,3"/>
  <text x="232.65" y="94" text-anchor="middle" font-family="Arial" font-size="8" font-weight="bold">R2</text>
  <text x="232.65" y="108" text-anchor="middle" font-family="Arial" font-size="5">29mm hole</text>
  
  <!-- SCREENS ROW 2 -->
  
  <!-- Display 4 -->
  <g id="display4">
    <rect x="15" y="115" width="57.9" height="29" fill="white" stroke="blue" stroke-width="2"/>
    <text x="43.95" y="132" text-anchor="middle" font-family="Arial" font-size="8" font-weight="bold">D4</text>
    <circle cx="16.5" cy="116.5" r="1" fill="white" stroke="red" stroke-width="1"/>
    <circle cx="71.4" cy="116.5" r="1" fill="white" stroke="red" stroke-width="1"/>
    <circle cx="16.5" cy="142.5" r="1" fill="white" stroke="red" stroke-width="1"/>
    <circle cx="71.4" cy="142.5" r="1" fill="white" stroke="red" stroke-width="1"/>
    <circle cx="10" cy="126" r="1.5" fill="white" stroke="green" stroke-width="1.5"/>
    <circle cx="10" cy="129" r="1.5" fill="white" stroke="green" stroke-width="1.5"/>
    <circle cx="10" cy="132" r="1.5" fill="white" stroke="green" stroke-width="1.5"/>
  </g>
  
  <!-- Display 5 -->
  <g id="display5">
    <rect x="77.9" y="115" width="57.9" height="29" fill="white" stroke="blue" stroke-width="2"/>
    <text x="106.85" y="132" text-anchor="middle" font-family="Arial" font-size="8" font-weight="bold">D5</text>
    <circle cx="79.4" cy="116.5" r="1" fill="white" stroke="red" stroke-width="1"/>
    <circle cx="134.3" cy="116.5" r="1" fill="white" stroke="red" stroke-width="1"/>
    <circle cx="79.4" cy="142.5" r="1" fill="white" stroke="red" stroke-width="1"/>
    <circle cx="134.3" cy="142.5" r="1" fill="white" stroke="red" stroke-width="1"/>
    <circle cx="72.9" cy="126" r="1.5" fill="white" stroke="green" stroke-width="1.5"/>
    <circle cx="72.9" cy="129" r="1.5" fill="white" stroke="green" stroke-width="1.5"/>
    <circle cx="72.9" cy="132" r="1.5" fill="white" stroke="green" stroke-width="1.5"/>
  </g>
  
  <!-- Display 6 -->
  <g id="display6">
    <rect x="140.8" y="115" width="57.9" height="29" fill="white" stroke="blue" stroke-width="2"/>
    <text x="169.75" y="132" text-anchor="middle" font-family="Arial" font-size="8" font-weight="bold">D6</text>
    <circle cx="142.3" cy="116.5" r="1" fill="white" stroke="red" stroke-width="1"/>
    <circle cx="197.2" cy="116.5" r="1" fill="white" stroke="red" stroke-width="1"/>
    <circle cx="142.3" cy="142.5" r="1" fill="white" stroke="red" stroke-width="1"/>
    <circle cx="197.2" cy="142.5" r="1" fill="white" stroke="red" stroke-width="1"/>
    <circle cx="135.8" cy="126" r="1.5" fill="white" stroke="green" stroke-width="1.5"/>
    <circle cx="135.8" cy="129" r="1.5" fill="white" stroke="green" stroke-width="1.5"/>
    <circle cx="135.8" cy="132" r="1.5" fill="white" stroke="green" stroke-width="1.5"/>
  </g>
  
  <!-- Display 7 -->
  <g id="display7">
    <rect x="203.7" y="115" width="57.9" height="29" fill="white" stroke="blue" stroke-width="2"/>
    <text x="232.65" y="132" text-anchor="middle" font-family="Arial" font-size="8" font-weight="bold">D7</text>
    <circle cx="205.2" cy="116.5" r="1" fill="white" stroke="red" stroke-width="1"/>
    <circle cx="260.1" cy="116.5" r="1" fill="white" stroke="red" stroke-width="1"/>
    <circle cx="205.2" cy="142.5" r="1" fill="white" stroke="red" stroke-width="1"/>
    <circle cx="260.1" cy="142.5" r="1" fill="white" stroke="red" stroke-width="1"/>
    <circle cx="198.7" cy="126" r="1.5" fill="white" stroke="green" stroke-width="1.5"/>
    <circle cx="198.7" cy="129" r="1.5" fill="white" stroke="green" stroke-width="1.5"/>
    <circle cx="198.7" cy="132" r="1.5" fill="white" stroke="green" stroke-width="1.5"/>
  </g>
  
  <!-- BUTTONS ROW 2 (Bottom) -->
  
  <!-- Button 4 -->
  <g id="button4">
    <rect x="34.95" y="150" width="18" height="18" fill="white" stroke="purple" stroke-width="2"/>
    <circle cx="43.95" cy="159" r="8" fill="none" stroke="purple" stroke-width="1" stroke-dasharray="2,2"/>
    <text x="43.95" y="162" text-anchor="middle" font-family="Arial" font-size="6">B4</text>
  </g>
  
  <!-- Button 5 -->
  <g id="button5">
    <rect x="97.85" y="150" width="18" height="18" fill="white" stroke="purple" stroke-width="2"/>
    <circle cx="106.85" cy="159" r="8" fill="none" stroke="purple" stroke-width="1" stroke-dasharray="2,2"/>
    <text x="106.85" y="162" text-anchor="middle" font-family="Arial" font-size="6">B5</text>
  </g>
  
  <!-- Button 6 -->
  <g id="button6">
    <rect x="160.75" y="150" width="18" height="18" fill="white" stroke="purple" stroke-width="2"/>
    <circle cx="169.75" cy="159" r="8" fill="none" stroke="purple" stroke-width="1" stroke-dasharray="2,2"/>
    <text x="169.75" y="162" text-anchor="middle" font-family="Arial" font-size="6">B6</text>
  </g>
  
  <!-- Button 7 -->
  <g id="button7">
    <rect x="223.65" y="150" width="18" height="18" fill="white" stroke="purple" stroke-width="2"/>
    <circle cx="232.65" cy="159" r="8" fill="none" stroke="purple" stroke-width="1" stroke-dasharray="2,2"/>
    <text x="232.65" y="162" text-anchor="middle" font-family="Arial" font-size="6">B7</text>
  </g>
  
  <!-- Legend -->
  <g id="legend" transform="translate(15, 175)">
    <text x="0" y="0" font-family="Arial" font-size="10" font-weight="bold">Legend:</text>
    
    <rect x="0" y="8" width="25" height="8" fill="white" stroke="blue" stroke-width="2"/>
    <text x="30" y="14" font-family="Arial" font-size="7">TFT Display (57.9×29.0mm)</text>
    
    <circle cx="12" cy="25" r="1" fill="white" stroke="red" stroke-width="1"/>
    <text x="30" y="27" font-family="Arial" font-size="7">Mount Hole (Ø2mm, 1.5mm from edge)</text>
    
    <circle cx="180" cy="8" r="1.5" fill="white" stroke="green" stroke-width="1.5"/>
    <circle cx="184" cy="8" r="1.5" fill="white" stroke="green" stroke-width="1.5"/>
    <text x="190" y="12" font-family="Arial" font-size="7">Pin Holes (Ø3mm, back connector)</text>
    
    <rect x="177" y="17" width="10" height="10" fill="white" stroke="purple" stroke-width="2"/>
    <circle cx="182" cy="22" r="5" fill="none" stroke="purple" stroke-width="1" stroke-dasharray="1,1"/>
    <text x="190" y="24" font-family="Arial" font-size="7">Task Button 18×18mm (16mm mount hole)</text>
    
    <circle cx="182" cy="35" r="7" fill="white" stroke="orange" stroke-width="2"/>
    <circle cx="182" cy="35" r="7" fill="none" stroke="orange" stroke-width="1" stroke-dasharray="2,2"/>
    <text x="190" y="37" font-family="Arial" font-size="7">Select Button Ø29mm (29mm mount hole)</text>
  </g>
  
  <!-- Dimensions -->
  <g id="dimensions" stroke="grey" stroke-width="0.5" fill="none" stroke-dasharray="2,2">
    <!-- Display width -->
    <line x1="15" y1="45" x2="72.9" y2="45"/>
    <text x="43.95" y="43" text-anchor="middle" font-family="Arial" font-size="6">57.9mm</text>
    
    <!-- Display height -->
    <line x1="10" y1="50" x2="10" y2="79"/>
    <text x="2" y="64.5" text-anchor="middle" font-family="Arial" font-size="6" transform="rotate(-90 2 64.5)">29mm</text>
  </g>
  
  <!-- Print instructions -->
  <text x="10" y="205" font-family="Arial" font-size="8" font-style="italic">
    Print at 100% scale on A4 landscape. REDESIGNED: B-D-S-D-B compact layout. Verify: displays = 57.9×29.0mm
  </text>
  
</svg> 