<?xml version="1.0" encoding="UTF-8"?>
<svg width="297mm" height="210mm" viewBox="0 0 297 210" xmlns="http://www.w3.org/2000/svg">
  
  <!-- A4 Page Border -->
  <rect x="5" y="5" width="287" height="200" fill="none" stroke="black" stroke-width="1"/>
  
  <!-- Title -->
  <text x="148.5" y="20" text-anchor="middle" font-family="Arial" font-size="14" font-weight="bold">
    ChoreTracker A4 Template - 2×4 Display Grid (Landscape Displays)
  </text>
  
  <!-- Row 1 - Displays 0-3 (Y=40) -->
  
  <!-- Display 0 - Position X=30 -->
  <g id="display0">
    <rect x="30" y="40" width="29" height="25.8" fill="white" stroke="blue" stroke-width="2"/>
    <text x="44.5" y="55" text-anchor="middle" font-family="Arial" font-size="8" font-weight="bold">D0</text>
    <!-- Mounting holes (corners) -->
    <circle cx="32" cy="42" r="1" fill="white" stroke="red" stroke-width="1"/>
    <circle cx="57" cy="42" r="1" fill="white" stroke="red" stroke-width="1"/>
    <circle cx="32" cy="63.8" r="1" fill="white" stroke="red" stroke-width="1"/>
    <circle cx="57" cy="63.8" r="1" fill="white" stroke="red" stroke-width="1"/>
    <!-- Wire holes (connector area) -->
    <circle cx="44.5" cy="70" r="1.5" fill="white" stroke="green" stroke-width="1.5"/>
    <circle cx="47.5" cy="70" r="1.5" fill="white" stroke="green" stroke-width="1.5"/>
    <!-- Task button (18×18mm square button) -->
    <rect x="35.5" y="80" width="18" height="18" fill="white" stroke="purple" stroke-width="2"/>
    <circle cx="44.5" cy="89" r="8" fill="none" stroke="purple" stroke-width="1" stroke-dasharray="2,2"/>
    <text x="44.5" y="92" text-anchor="middle" font-family="Arial" font-size="6">B0</text>
    <text x="44.5" y="105" text-anchor="middle" font-family="Arial" font-size="5">16mm hole</text>
  </g>
  
  <!-- Display 1 - Position X=75 -->
  <g id="display1">
    <rect x="75" y="40" width="29" height="25.8" fill="white" stroke="blue" stroke-width="2"/>
    <text x="89.5" y="55" text-anchor="middle" font-family="Arial" font-size="8" font-weight="bold">D1</text>
    <!-- Mounting holes -->
    <circle cx="77" cy="42" r="1" fill="white" stroke="red" stroke-width="1"/>
    <circle cx="102" cy="42" r="1" fill="white" stroke="red" stroke-width="1"/>
    <circle cx="77" cy="63.8" r="1" fill="white" stroke="red" stroke-width="1"/>
    <circle cx="102" cy="63.8" r="1" fill="white" stroke="red" stroke-width="1"/>
    <!-- Wire holes -->
    <circle cx="89.5" cy="70" r="1.5" fill="white" stroke="green" stroke-width="1.5"/>
    <circle cx="92.5" cy="70" r="1.5" fill="white" stroke="green" stroke-width="1.5"/>
    <!-- Task button -->
    <rect x="80.5" y="80" width="18" height="18" fill="white" stroke="purple" stroke-width="2"/>
    <circle cx="89.5" cy="89" r="8" fill="none" stroke="purple" stroke-width="1" stroke-dasharray="2,2"/>
    <text x="89.5" y="92" text-anchor="middle" font-family="Arial" font-size="6">B1</text>
  </g>
  
  <!-- Display 2 - Position X=120 -->
  <g id="display2">
    <rect x="120" y="40" width="29" height="25.8" fill="white" stroke="blue" stroke-width="2"/>
    <text x="134.5" y="55" text-anchor="middle" font-family="Arial" font-size="8" font-weight="bold">D2</text>
    <!-- Mounting holes -->
    <circle cx="122" cy="42" r="1" fill="white" stroke="red" stroke-width="1"/>
    <circle cx="147" cy="42" r="1" fill="white" stroke="red" stroke-width="1"/>
    <circle cx="122" cy="63.8" r="1" fill="white" stroke="red" stroke-width="1"/>
    <circle cx="147" cy="63.8" r="1" fill="white" stroke="red" stroke-width="1"/>
    <!-- Wire holes -->
    <circle cx="134.5" cy="70" r="1.5" fill="white" stroke="green" stroke-width="1.5"/>
    <circle cx="137.5" cy="70" r="1.5" fill="white" stroke="green" stroke-width="1.5"/>
    <!-- Task button -->
    <rect x="125.5" y="80" width="18" height="18" fill="white" stroke="purple" stroke-width="2"/>
    <circle cx="134.5" cy="89" r="8" fill="none" stroke="purple" stroke-width="1" stroke-dasharray="2,2"/>
    <text x="134.5" y="92" text-anchor="middle" font-family="Arial" font-size="6">B2</text>
  </g>
  
  <!-- Display 3 - Position X=165 -->
  <g id="display3">
    <rect x="165" y="40" width="29" height="25.8" fill="white" stroke="blue" stroke-width="2"/>
    <text x="179.5" y="55" text-anchor="middle" font-family="Arial" font-size="8" font-weight="bold">D3</text>
    <!-- Mounting holes -->
    <circle cx="167" cy="42" r="1" fill="white" stroke="red" stroke-width="1"/>
    <circle cx="192" cy="42" r="1" fill="white" stroke="red" stroke-width="1"/>
    <circle cx="167" cy="63.8" r="1" fill="white" stroke="red" stroke-width="1"/>
    <circle cx="192" cy="63.8" r="1" fill="white" stroke="red" stroke-width="1"/>
    <!-- Wire holes -->
    <circle cx="179.5" cy="70" r="1.5" fill="white" stroke="green" stroke-width="1.5"/>
    <circle cx="182.5" cy="70" r="1.5" fill="white" stroke="green" stroke-width="1.5"/>
    <!-- Task button -->
    <rect x="170.5" y="80" width="18" height="18" fill="white" stroke="purple" stroke-width="2"/>
    <circle cx="179.5" cy="89" r="8" fill="none" stroke="purple" stroke-width="1" stroke-dasharray="2,2"/>
    <text x="179.5" y="92" text-anchor="middle" font-family="Arial" font-size="6">B3</text>
  </g>
  
  <!-- Row 1 Select Button (33mm round button) -->
  <circle cx="220" cy="52.9" r="16.5" fill="white" stroke="orange" stroke-width="3"/>
  <circle cx="220" cy="52.9" r="16.5" fill="none" stroke="orange" stroke-width="1" stroke-dasharray="3,3"/>
  <text x="220" y="57" text-anchor="middle" font-family="Arial" font-size="10" font-weight="bold">R1</text>
  <text x="220" y="75" text-anchor="middle" font-family="Arial" font-size="5">33mm hole</text>
  
  <!-- Row 2 - Displays 4-7 (Y=130) -->
  
  <!-- Display 4 - Position X=30 -->
  <g id="display4">
    <rect x="30" y="130" width="29" height="25.8" fill="white" stroke="blue" stroke-width="2"/>
    <text x="44.5" y="145" text-anchor="middle" font-family="Arial" font-size="8" font-weight="bold">D4</text>
    <!-- Mounting holes -->
    <circle cx="32" cy="132" r="1" fill="white" stroke="red" stroke-width="1"/>
    <circle cx="57" cy="132" r="1" fill="white" stroke="red" stroke-width="1"/>
    <circle cx="32" cy="153.8" r="1" fill="white" stroke="red" stroke-width="1"/>
    <circle cx="57" cy="153.8" r="1" fill="white" stroke="red" stroke-width="1"/>
    <!-- Wire holes -->
    <circle cx="44.5" cy="160" r="1.5" fill="white" stroke="green" stroke-width="1.5"/>
    <circle cx="47.5" cy="160" r="1.5" fill="white" stroke="green" stroke-width="1.5"/>
    <!-- Task button -->
    <rect x="35.5" y="170" width="18" height="18" fill="white" stroke="purple" stroke-width="2"/>
    <circle cx="44.5" cy="179" r="8" fill="none" stroke="purple" stroke-width="1" stroke-dasharray="2,2"/>
    <text x="44.5" y="182" text-anchor="middle" font-family="Arial" font-size="6">B4</text>
  </g>
  
  <!-- Display 5 - Position X=75 -->
  <g id="display5">
    <rect x="75" y="130" width="29" height="25.8" fill="white" stroke="blue" stroke-width="2"/>
    <text x="89.5" y="145" text-anchor="middle" font-family="Arial" font-size="8" font-weight="bold">D5</text>
    <!-- Mounting holes -->
    <circle cx="77" cy="132" r="1" fill="white" stroke="red" stroke-width="1"/>
    <circle cx="102" cy="132" r="1" fill="white" stroke="red" stroke-width="1"/>
    <circle cx="77" cy="153.8" r="1" fill="white" stroke="red" stroke-width="1"/>
    <circle cx="102" cy="153.8" r="1" fill="white" stroke="red" stroke-width="1"/>
    <!-- Wire holes -->
    <circle cx="89.5" cy="160" r="1.5" fill="white" stroke="green" stroke-width="1.5"/>
    <circle cx="92.5" cy="160" r="1.5" fill="white" stroke="green" stroke-width="1.5"/>
    <!-- Task button -->
    <rect x="80.5" y="170" width="18" height="18" fill="white" stroke="purple" stroke-width="2"/>
    <circle cx="89.5" cy="179" r="8" fill="none" stroke="purple" stroke-width="1" stroke-dasharray="2,2"/>
    <text x="89.5" y="182" text-anchor="middle" font-family="Arial" font-size="6">B5</text>
  </g>
  
  <!-- Display 6 - Position X=120 -->
  <g id="display6">
    <rect x="120" y="130" width="29" height="25.8" fill="white" stroke="blue" stroke-width="2"/>
    <text x="134.5" y="145" text-anchor="middle" font-family="Arial" font-size="8" font-weight="bold">D6</text>
    <!-- Mounting holes -->
    <circle cx="122" cy="132" r="1" fill="white" stroke="red" stroke-width="1"/>
    <circle cx="147" cy="132" r="1" fill="white" stroke="red" stroke-width="1"/>
    <circle cx="122" cy="153.8" r="1" fill="white" stroke="red" stroke-width="1"/>
    <circle cx="147" cy="153.8" r="1" fill="white" stroke="red" stroke-width="1"/>
    <!-- Wire holes -->
    <circle cx="134.5" cy="160" r="1.5" fill="white" stroke="green" stroke-width="1.5"/>
    <circle cx="137.5" cy="160" r="1.5" fill="white" stroke="green" stroke-width="1.5"/>
    <!-- Task button -->
    <rect x="125.5" y="170" width="18" height="18" fill="white" stroke="purple" stroke-width="2"/>
    <circle cx="134.5" cy="179" r="8" fill="none" stroke="purple" stroke-width="1" stroke-dasharray="2,2"/>
    <text x="134.5" y="182" text-anchor="middle" font-family="Arial" font-size="6">B6</text>
  </g>
  
  <!-- Display 7 - Position X=165 -->
  <g id="display7">
    <rect x="165" y="130" width="29" height="25.8" fill="white" stroke="blue" stroke-width="2"/>
    <text x="179.5" y="145" text-anchor="middle" font-family="Arial" font-size="8" font-weight="bold">D7</text>
    <!-- Mounting holes -->
    <circle cx="167" cy="132" r="1" fill="white" stroke="red" stroke-width="1"/>
    <circle cx="192" cy="132" r="1" fill="white" stroke="red" stroke-width="1"/>
    <circle cx="167" cy="153.8" r="1" fill="white" stroke="red" stroke-width="1"/>
    <circle cx="192" cy="153.8" r="1" fill="white" stroke="red" stroke-width="1"/>
    <!-- Wire holes -->
    <circle cx="179.5" cy="160" r="1.5" fill="white" stroke="green" stroke-width="1.5"/>
    <circle cx="182.5" cy="160" r="1.5" fill="white" stroke="green" stroke-width="1.5"/>
    <!-- Task button -->
    <rect x="170.5" y="170" width="18" height="18" fill="white" stroke="purple" stroke-width="2"/>
    <circle cx="179.5" cy="179" r="8" fill="none" stroke="purple" stroke-width="1" stroke-dasharray="2,2"/>
    <text x="179.5" y="182" text-anchor="middle" font-family="Arial" font-size="6">B7</text>
  </g>
  
  <!-- Row 2 Select Button -->
  <circle cx="220" cy="142.9" r="16.5" fill="white" stroke="orange" stroke-width="3"/>
  <circle cx="220" cy="142.9" r="16.5" fill="none" stroke="orange" stroke-width="1" stroke-dasharray="3,3"/>
  <text x="220" y="147" text-anchor="middle" font-family="Arial" font-size="10" font-weight="bold">R2</text>
  <text x="220" y="165" text-anchor="middle" font-family="Arial" font-size="5">33mm hole</text>
  
  <!-- Legend -->
  <g id="legend" transform="translate(250, 40)">
    <text x="0" y="0" font-family="Arial" font-size="10" font-weight="bold">Legend:</text>
    
    <rect x="0" y="10" width="20" height="8" fill="white" stroke="blue" stroke-width="2"/>
    <text x="25" y="16" font-family="Arial" font-size="7">TFT Display (29×25.8mm)</text>
    
    <circle cx="10" cy="30" r="1" fill="white" stroke="red" stroke-width="1"/>
    <text x="25" y="32" font-family="Arial" font-size="7">Mount Hole (Ø2mm)</text>
    
    <circle cx="7" cy="45" r="1.5" fill="white" stroke="green" stroke-width="1.5"/>
    <circle cx="13" cy="45" r="1.5" fill="white" stroke="green" stroke-width="1.5"/>
    <text x="25" y="47" font-family="Arial" font-size="7">Wire Holes (Ø3mm)</text>
    
    <rect x="5" y="55" width="10" height="10" fill="white" stroke="purple" stroke-width="2"/>
    <circle cx="10" cy="60" r="5" fill="none" stroke="purple" stroke-width="1" stroke-dasharray="1,1"/>
    <text x="25" y="62" font-family="Arial" font-size="7">Task Button 18×18mm</text>
    <text x="25" y="69" font-family="Arial" font-size="6">(16mm mount hole)</text>
    
    <circle cx="10" cy="85" r="8" fill="white" stroke="orange" stroke-width="2"/>
    <circle cx="10" cy="85" r="8" fill="none" stroke="orange" stroke-width="1" stroke-dasharray="2,2"/>
    <text x="25" y="87" font-family="Arial" font-size="7">Select Button Ø33mm</text>
    <text x="25" y="94" font-family="Arial" font-size="6">(33mm mount hole)</text>
  </g>
  
  <!-- Dimensions -->
  <g id="dimensions" stroke="grey" stroke-width="0.5" fill="none" stroke-dasharray="2,2">
    <!-- Display spacing -->
    <line x1="59" y1="30" x2="75" y2="30"/>
    <text x="67" y="28" text-anchor="middle" font-family="Arial" font-size="6">16mm</text>
    
    <!-- Display width -->
    <line x1="30" y1="35" x2="59" y2="35"/>
    <text x="44.5" y="33" text-anchor="middle" font-family="Arial" font-size="6">29mm</text>
    
    <!-- Display height -->
    <line x1="25" y1="40" x2="25" y2="65.8"/>
    <text x="15" y="53" text-anchor="middle" font-family="Arial" font-size="6" transform="rotate(-90 15 53)">25.8mm</text>
    
    <!-- Row spacing -->
    <line x1="15" y1="52.9" x2="15" y2="142.9"/>
    <text x="10" y="97.9" text-anchor="middle" font-family="Arial" font-size="6" transform="rotate(-90 10 97.9)">90mm</text>
  </g>
  
  <!-- Print instructions -->
  <text x="10" y="200" font-family="Arial" font-size="8" font-style="italic">
    Print at 100% scale on A4 landscape. Verify: TFT displays should measure exactly 29mm × 25.8mm
  </text>
  
</svg> 