<?xml version="1.0" encoding="UTF-8"?>
<svg width="297mm" height="210mm" viewBox="0 0 297 210" xmlns="http://www.w3.org/2000/svg">
  
  <!-- A4 Page Border -->
  <rect x="5" y="5" width="287" height="200" fill="none" stroke="black" stroke-width="1"/>
  
  <!-- Title -->
  <text x="148.5" y="20" text-anchor="middle" font-family="Arial" font-size="14" font-weight="bold">
    ChoreTracker A4 Template - 2×4 Display Grid
  </text>
  
  <!-- Row 1 - Displays 0-3 (Y=40) -->
  
  <!-- Display 0 - Position X=40 -->
  <g id="display0">
    <rect x="40" y="40" width="30" height="62" fill="white" stroke="blue" stroke-width="2"/>
    <text x="55" y="75" text-anchor="middle" font-family="Arial" font-size="10" font-weight="bold">D0</text>
    <!-- Mounting holes -->
    <circle cx="43" cy="43" r="1.5" fill="white" stroke="red" stroke-width="1"/>
    <circle cx="67" cy="43" r="1.5" fill="white" stroke="red" stroke-width="1"/>
    <circle cx="43" cy="99" r="1.5" fill="white" stroke="red" stroke-width="1"/>
    <circle cx="67" cy="99" r="1.5" fill="white" stroke="red" stroke-width="1"/>
    <!-- Wire hole -->
    <circle cx="55" cy="107" r="3" fill="white" stroke="green" stroke-width="1.5"/>
    <!-- Task button -->
    <rect x="48" y="115" width="14" height="14" fill="white" stroke="purple" stroke-width="2"/>
    <text x="55" y="125" text-anchor="middle" font-family="Arial" font-size="8">B0</text>
    <!-- LED hole -->
    <circle cx="55" cy="135" r="2" fill="white" stroke="purple" stroke-width="1"/>
  </g>
  
  <!-- Display 1 - Position X=90 -->
  <g id="display1">
    <rect x="90" y="40" width="30" height="62" fill="white" stroke="blue" stroke-width="2"/>
    <text x="105" y="75" text-anchor="middle" font-family="Arial" font-size="10" font-weight="bold">D1</text>
    <!-- Mounting holes -->
    <circle cx="93" cy="43" r="1.5" fill="white" stroke="red" stroke-width="1"/>
    <circle cx="117" cy="43" r="1.5" fill="white" stroke="red" stroke-width="1"/>
    <circle cx="93" cy="99" r="1.5" fill="white" stroke="red" stroke-width="1"/>
    <circle cx="117" cy="99" r="1.5" fill="white" stroke="red" stroke-width="1"/>
    <!-- Wire hole -->
    <circle cx="105" cy="107" r="3" fill="white" stroke="green" stroke-width="1.5"/>
    <!-- Task button -->
    <rect x="98" y="115" width="14" height="14" fill="white" stroke="purple" stroke-width="2"/>
    <text x="105" y="125" text-anchor="middle" font-family="Arial" font-size="8">B1</text>
    <!-- LED hole -->
    <circle cx="105" cy="135" r="2" fill="white" stroke="purple" stroke-width="1"/>
  </g>
  
  <!-- Display 2 - Position X=140 -->
  <g id="display2">
    <rect x="140" y="40" width="30" height="62" fill="white" stroke="blue" stroke-width="2"/>
    <text x="155" y="75" text-anchor="middle" font-family="Arial" font-size="10" font-weight="bold">D2</text>
    <!-- Mounting holes -->
    <circle cx="143" cy="43" r="1.5" fill="white" stroke="red" stroke-width="1"/>
    <circle cx="167" cy="43" r="1.5" fill="white" stroke="red" stroke-width="1"/>
    <circle cx="143" cy="99" r="1.5" fill="white" stroke="red" stroke-width="1"/>
    <circle cx="167" cy="99" r="1.5" fill="white" stroke="red" stroke-width="1"/>
    <!-- Wire hole -->
    <circle cx="155" cy="107" r="3" fill="white" stroke="green" stroke-width="1.5"/>
    <!-- Task button -->
    <rect x="148" y="115" width="14" height="14" fill="white" stroke="purple" stroke-width="2"/>
    <text x="155" y="125" text-anchor="middle" font-family="Arial" font-size="8">B2</text>
    <!-- LED hole -->
    <circle cx="155" cy="135" r="2" fill="white" stroke="purple" stroke-width="1"/>
  </g>
  
  <!-- Display 3 - Position X=190 -->
  <g id="display3">
    <rect x="190" y="40" width="30" height="62" fill="white" stroke="blue" stroke-width="2"/>
    <text x="205" y="75" text-anchor="middle" font-family="Arial" font-size="10" font-weight="bold">D3</text>
    <!-- Mounting holes -->
    <circle cx="193" cy="43" r="1.5" fill="white" stroke="red" stroke-width="1"/>
    <circle cx="217" cy="43" r="1.5" fill="white" stroke="red" stroke-width="1"/>
    <circle cx="193" cy="99" r="1.5" fill="white" stroke="red" stroke-width="1"/>
    <circle cx="217" cy="99" r="1.5" fill="white" stroke="red" stroke-width="1"/>
    <!-- Wire hole -->
    <circle cx="205" cy="107" r="3" fill="white" stroke="green" stroke-width="1.5"/>
    <!-- Task button -->
    <rect x="198" y="115" width="14" height="14" fill="white" stroke="purple" stroke-width="2"/>
    <text x="205" y="125" text-anchor="middle" font-family="Arial" font-size="8">B3</text>
    <!-- LED hole -->
    <circle cx="205" cy="135" r="2" fill="white" stroke="purple" stroke-width="1"/>
  </g>
  
  <!-- Row 1 Select Button -->
  <circle cx="240" cy="71" r="12" fill="white" stroke="orange" stroke-width="3"/>
  <text x="240" y="76" text-anchor="middle" font-family="Arial" font-size="10" font-weight="bold">R1</text>
  <circle cx="240" cy="90" r="2" fill="white" stroke="orange" stroke-width="1"/>
  
  <!-- Row 2 - Displays 4-7 (Y=160) -->
  
  <!-- Display 4 - Position X=40 -->
  <g id="display4">
    <rect x="40" y="160" width="30" height="62" fill="white" stroke="blue" stroke-width="2"/>
    <text x="55" y="195" text-anchor="middle" font-family="Arial" font-size="10" font-weight="bold">D4</text>
    <!-- Mounting holes -->
    <circle cx="43" cy="163" r="1.5" fill="white" stroke="red" stroke-width="1"/>
    <circle cx="67" cy="163" r="1.5" fill="white" stroke="red" stroke-width="1"/>
    <circle cx="43" cy="219" r="1.5" fill="white" stroke="red" stroke-width="1"/>
    <circle cx="67" cy="219" r="1.5" fill="white" stroke="red" stroke-width="1"/>
    <!-- Wire hole -->
    <circle cx="55" cy="227" r="3" fill="white" stroke="green" stroke-width="1.5"/>
    <!-- Task button -->
    <rect x="48" y="235" width="14" height="14" fill="white" stroke="purple" stroke-width="2"/>
    <text x="55" y="245" text-anchor="middle" font-family="Arial" font-size="8">B4</text>
    <!-- LED hole -->
    <circle cx="55" cy="255" r="2" fill="white" stroke="purple" stroke-width="1"/>
  </g>
  
  <!-- Display 5 - Position X=90 -->
  <g id="display5">
    <rect x="90" y="160" width="30" height="62" fill="white" stroke="blue" stroke-width="2"/>
    <text x="105" y="195" text-anchor="middle" font-family="Arial" font-size="10" font-weight="bold">D5</text>
    <!-- Mounting holes -->
    <circle cx="93" cy="163" r="1.5" fill="white" stroke="red" stroke-width="1"/>
    <circle cx="117" cy="163" r="1.5" fill="white" stroke="red" stroke-width="1"/>
    <circle cx="93" cy="219" r="1.5" fill="white" stroke="red" stroke-width="1"/>
    <circle cx="117" cy="219" r="1.5" fill="white" stroke="red" stroke-width="1"/>
    <!-- Wire hole -->
    <circle cx="105" cy="227" r="3" fill="white" stroke="green" stroke-width="1.5"/>
    <!-- Task button -->
    <rect x="98" y="235" width="14" height="14" fill="white" stroke="purple" stroke-width="2"/>
    <text x="105" y="245" text-anchor="middle" font-family="Arial" font-size="8">B5</text>
    <!-- LED hole -->
    <circle cx="105" cy="255" r="2" fill="white" stroke="purple" stroke-width="1"/>
  </g>
  
  <!-- Display 6 - Position X=140 -->
  <g id="display6">
    <rect x="140" y="160" width="30" height="62" fill="white" stroke="blue" stroke-width="2"/>
    <text x="155" y="195" text-anchor="middle" font-family="Arial" font-size="10" font-weight="bold">D6</text>
    <!-- Mounting holes -->
    <circle cx="143" cy="163" r="1.5" fill="white" stroke="red" stroke-width="1"/>
    <circle cx="167" cy="163" r="1.5" fill="white" stroke="red" stroke-width="1"/>
    <circle cx="143" cy="219" r="1.5" fill="white" stroke="red" stroke-width="1"/>
    <circle cx="167" cy="219" r="1.5" fill="white" stroke="red" stroke-width="1"/>
    <!-- Wire hole -->
    <circle cx="155" cy="227" r="3" fill="white" stroke="green" stroke-width="1.5"/>
    <!-- Task button -->
    <rect x="148" y="235" width="14" height="14" fill="white" stroke="purple" stroke-width="2"/>
    <text x="155" y="245" text-anchor="middle" font-family="Arial" font-size="8">B6</text>
    <!-- LED hole -->
    <circle cx="155" cy="255" r="2" fill="white" stroke="purple" stroke-width="1"/>
  </g>
  
  <!-- Display 7 - Position X=190 -->
  <g id="display7">
    <rect x="190" y="160" width="30" height="62" fill="white" stroke="blue" stroke-width="2"/>
    <text x="205" y="195" text-anchor="middle" font-family="Arial" font-size="10" font-weight="bold">D7</text>
    <!-- Mounting holes -->
    <circle cx="193" cy="163" r="1.5" fill="white" stroke="red" stroke-width="1"/>
    <circle cx="217" cy="163" r="1.5" fill="white" stroke="red" stroke-width="1"/>
    <circle cx="193" cy="219" r="1.5" fill="white" stroke="red" stroke-width="1"/>
    <circle cx="217" cy="219" r="1.5" fill="white" stroke="red" stroke-width="1"/>
    <!-- Wire hole -->
    <circle cx="205" cy="227" r="3" fill="white" stroke="green" stroke-width="1.5"/>
    <!-- Task button -->
    <rect x="198" y="235" width="14" height="14" fill="white" stroke="purple" stroke-width="2"/>
    <text x="205" y="245" text-anchor="middle" font-family="Arial" font-size="8">B7</text>
    <!-- LED hole -->
    <circle cx="205" cy="255" r="2" fill="white" stroke="purple" stroke-width="1"/>
  </g>
  
  <!-- Row 2 Select Button -->
  <circle cx="240" cy="191" r="12" fill="white" stroke="orange" stroke-width="3"/>
  <text x="240" y="196" text-anchor="middle" font-family="Arial" font-size="10" font-weight="bold">R2</text>
  <circle cx="240" cy="210" r="2" fill="white" stroke="orange" stroke-width="1"/>
  
  <!-- Legend -->
  <g id="legend" transform="translate(260, 40)">
    <text x="0" y="0" font-family="Arial" font-size="10" font-weight="bold">Legend:</text>
    
    <rect x="0" y="10" width="15" height="10" fill="white" stroke="blue" stroke-width="2"/>
    <text x="20" y="17" font-family="Arial" font-size="8">TFT Display (30×62mm)</text>
    
    <circle cx="7" cy="30" r="1.5" fill="white" stroke="red" stroke-width="1"/>
    <text x="20" y="33" font-family="Arial" font-size="8">Mount Hole (Ø3mm)</text>
    
    <circle cx="7" cy="45" r="3" fill="white" stroke="green" stroke-width="1.5"/>
    <text x="20" y="48" font-family="Arial" font-size="8">Wire Hole (Ø6mm)</text>
    
    <rect x="2" y="55" width="10" height="10" fill="white" stroke="purple" stroke-width="2"/>
    <text x="20" y="62" font-family="Arial" font-size="8">Task Button (14×14mm)</text>
    
    <circle cx="7" cy="77" r="2" fill="white" stroke="purple" stroke-width="1"/>
    <text x="20" y="80" font-family="Arial" font-size="8">LED Hole (Ø4mm)</text>
    
    <circle cx="7" cy="92" r="6" fill="white" stroke="orange" stroke-width="2"/>
    <text x="20" y="95" font-family="Arial" font-size="8">Select Button (Ø24mm)</text>
  </g>
  
  <!-- Dimensions -->
  <g id="dimensions" stroke="grey" stroke-width="0.5" fill="none" stroke-dasharray="2,2">
    <!-- Display spacing -->
    <line x1="70" y1="30" x2="90" y2="30"/>
    <text x="80" y="28" text-anchor="middle" font-family="Arial" font-size="8">20mm</text>
    
    <!-- Overall width -->
    <line x1="40" y1="25" x2="220" y2="25"/>
    <text x="130" y="23" text-anchor="middle" font-family="Arial" font-size="8">180mm (Display Area)</text>
    
    <!-- Row spacing -->
    <line x1="25" y1="102" x2="25" y2="160"/>
    <text x="15" y="131" text-anchor="middle" font-family="Arial" font-size="8" transform="rotate(-90 15 131)">58mm</text>
  </g>
  
  <!-- Print instructions -->
  <text x="10" y="285" font-family="Arial" font-size="8" font-style="italic">
    Print at 100% scale on A4 paper. Verify dimensions before cutting. All holes shown at actual size.
  </text>
  
</svg> 