<?xml version="1.0" encoding="UTF-8"?>
<svg width="297mm" height="210mm" viewBox="0 0 297 210" xmlns="http://www.w3.org/2000/svg">
  
  <!-- A4 Page Border -->
  <rect x="5" y="5" width="287" height="200" fill="none" stroke="black" stroke-width="1"/>
  
  <!-- Title -->
  <text x="148.5" y="15" text-anchor="middle" font-family="Arial" font-size="12" font-weight="bold">
    ChoreTracker A4 Template - CORRECTED DIMENSIONS (57.9×29.0mm)
  </text>
  
  <!-- Row 1 - Displays 0-3 (Y=30) -->
  
  <!-- Display 0 - Position X=25 -->
  <g id="display0">
    <rect x="25" y="30" width="57.9" height="29" fill="white" stroke="blue" stroke-width="2"/>
    <text x="53.95" y="47" text-anchor="middle" font-family="Arial" font-size="8" font-weight="bold">D0</text>
    <!-- Mounting holes (1.5mm from edges) -->
    <circle cx="26.5" cy="31.5" r="1" fill="white" stroke="red" stroke-width="1"/>
    <circle cx="81.4" cy="31.5" r="1" fill="white" stroke="red" stroke-width="1"/>
    <circle cx="26.5" cy="57.5" r="1" fill="white" stroke="red" stroke-width="1"/>
    <circle cx="81.4" cy="57.5" r="1" fill="white" stroke="red" stroke-width="1"/>
    <!-- Wire holes -->
    <circle cx="53.95" cy="64" r="1.5" fill="white" stroke="green" stroke-width="1.5"/>
    <circle cx="57.45" cy="64" r="1.5" fill="white" stroke="green" stroke-width="1.5"/>
    <!-- Task button (18×18mm, 16mm hole) -->
    <rect x="44.95" y="72" width="18" height="18" fill="white" stroke="purple" stroke-width="2"/>
    <circle cx="53.95" cy="81" r="8" fill="none" stroke="purple" stroke-width="1" stroke-dasharray="2,2"/>
    <text x="53.95" y="84" text-anchor="middle" font-family="Arial" font-size="6">B0</text>
  </g>
  
  <!-- Display 1 - Position X=87.9 -->
  <g id="display1">
    <rect x="87.9" y="30" width="57.9" height="29" fill="white" stroke="blue" stroke-width="2"/>
    <text x="116.85" y="47" text-anchor="middle" font-family="Arial" font-size="8" font-weight="bold">D1</text>
    <circle cx="89.4" cy="31.5" r="1" fill="white" stroke="red" stroke-width="1"/>
    <circle cx="144.3" cy="31.5" r="1" fill="white" stroke="red" stroke-width="1"/>
    <circle cx="89.4" cy="57.5" r="1" fill="white" stroke="red" stroke-width="1"/>
    <circle cx="144.3" cy="57.5" r="1" fill="white" stroke="red" stroke-width="1"/>
    <circle cx="116.85" cy="64" r="1.5" fill="white" stroke="green" stroke-width="1.5"/>
    <circle cx="120.35" cy="64" r="1.5" fill="white" stroke="green" stroke-width="1.5"/>
    <rect x="107.85" y="72" width="18" height="18" fill="white" stroke="purple" stroke-width="2"/>
    <circle cx="116.85" cy="81" r="8" fill="none" stroke="purple" stroke-width="1" stroke-dasharray="2,2"/>
    <text x="116.85" y="84" text-anchor="middle" font-family="Arial" font-size="6">B1</text>
  </g>
  
  <!-- Display 2 - Position X=150.8 -->
  <g id="display2">
    <rect x="150.8" y="30" width="57.9" height="29" fill="white" stroke="blue" stroke-width="2"/>
    <text x="179.75" y="47" text-anchor="middle" font-family="Arial" font-size="8" font-weight="bold">D2</text>
    <circle cx="152.3" cy="31.5" r="1" fill="white" stroke="red" stroke-width="1"/>
    <circle cx="207.2" cy="31.5" r="1" fill="white" stroke="red" stroke-width="1"/>
    <circle cx="152.3" cy="57.5" r="1" fill="white" stroke="red" stroke-width="1"/>
    <circle cx="207.2" cy="57.5" r="1" fill="white" stroke="red" stroke-width="1"/>
    <circle cx="179.75" cy="64" r="1.5" fill="white" stroke="green" stroke-width="1.5"/>
    <circle cx="183.25" cy="64" r="1.5" fill="white" stroke="green" stroke-width="1.5"/>
    <rect x="170.75" y="72" width="18" height="18" fill="white" stroke="purple" stroke-width="2"/>
    <circle cx="179.75" cy="81" r="8" fill="none" stroke="purple" stroke-width="1" stroke-dasharray="2,2"/>
    <text x="179.75" y="84" text-anchor="middle" font-family="Arial" font-size="6">B2</text>
  </g>
  
  <!-- Display 3 - Position X=213.7 -->
  <g id="display3">
    <rect x="213.7" y="30" width="57.9" height="29" fill="white" stroke="blue" stroke-width="2"/>
    <text x="242.65" y="47" text-anchor="middle" font-family="Arial" font-size="8" font-weight="bold">D3</text>
    <circle cx="215.2" cy="31.5" r="1" fill="white" stroke="red" stroke-width="1"/>
    <circle cx="270.1" cy="31.5" r="1" fill="white" stroke="red" stroke-width="1"/>
    <circle cx="215.2" cy="57.5" r="1" fill="white" stroke="red" stroke-width="1"/>
    <circle cx="270.1" cy="57.5" r="1" fill="white" stroke="red" stroke-width="1"/>
    <circle cx="242.65" cy="64" r="1.5" fill="white" stroke="green" stroke-width="1.5"/>
    <circle cx="246.15" cy="64" r="1.5" fill="white" stroke="green" stroke-width="1.5"/>
    <rect x="233.65" y="72" width="18" height="18" fill="white" stroke="purple" stroke-width="2"/>
    <circle cx="242.65" cy="81" r="8" fill="none" stroke="purple" stroke-width="1" stroke-dasharray="2,2"/>
    <text x="242.65" y="84" text-anchor="middle" font-family="Arial" font-size="6">B3</text>
  </g>
  
  <!-- Row 1 Select Button (29mm hole) -->
  <circle cx="280" cy="44.5" r="14.5" fill="white" stroke="orange" stroke-width="3"/>
  <circle cx="280" cy="44.5" r="14.5" fill="none" stroke="orange" stroke-width="1" stroke-dasharray="3,3"/>
  <text x="280" y="48" text-anchor="middle" font-family="Arial" font-size="8" font-weight="bold">R1</text>
  <text x="280" y="62" text-anchor="middle" font-family="Arial" font-size="5">29mm hole</text>
  
  <!-- Row 2 - Displays 4-7 (Y=139) -->
  
  <!-- Display 4 - Position X=25 -->
  <g id="display4">
    <rect x="25" y="139" width="57.9" height="29" fill="white" stroke="blue" stroke-width="2"/>
    <text x="53.95" y="156" text-anchor="middle" font-family="Arial" font-size="8" font-weight="bold">D4</text>
    <circle cx="26.5" cy="140.5" r="1" fill="white" stroke="red" stroke-width="1"/>
    <circle cx="81.4" cy="140.5" r="1" fill="white" stroke="red" stroke-width="1"/>
    <circle cx="26.5" cy="166.5" r="1" fill="white" stroke="red" stroke-width="1"/>
    <circle cx="81.4" cy="166.5" r="1" fill="white" stroke="red" stroke-width="1"/>
    <circle cx="53.95" cy="173" r="1.5" fill="white" stroke="green" stroke-width="1.5"/>
    <circle cx="57.45" cy="173" r="1.5" fill="white" stroke="green" stroke-width="1.5"/>
    <rect x="44.95" y="181" width="18" height="18" fill="white" stroke="purple" stroke-width="2"/>
    <circle cx="53.95" cy="190" r="8" fill="none" stroke="purple" stroke-width="1" stroke-dasharray="2,2"/>
    <text x="53.95" y="193" text-anchor="middle" font-family="Arial" font-size="6">B4</text>
  </g>
  
  <!-- Display 5 - Position X=87.9 -->
  <g id="display5">
    <rect x="87.9" y="139" width="57.9" height="29" fill="white" stroke="blue" stroke-width="2"/>
    <text x="116.85" y="156" text-anchor="middle" font-family="Arial" font-size="8" font-weight="bold">D5</text>
    <circle cx="89.4" cy="140.5" r="1" fill="white" stroke="red" stroke-width="1"/>
    <circle cx="144.3" cy="140.5" r="1" fill="white" stroke="red" stroke-width="1"/>
    <circle cx="89.4" cy="166.5" r="1" fill="white" stroke="red" stroke-width="1"/>
    <circle cx="144.3" cy="166.5" r="1" fill="white" stroke="red" stroke-width="1"/>
    <circle cx="116.85" cy="173" r="1.5" fill="white" stroke="green" stroke-width="1.5"/>
    <circle cx="120.35" cy="173" r="1.5" fill="white" stroke="green" stroke-width="1.5"/>
    <rect x="107.85" y="181" width="18" height="18" fill="white" stroke="purple" stroke-width="2"/>
    <circle cx="116.85" cy="190" r="8" fill="none" stroke="purple" stroke-width="1" stroke-dasharray="2,2"/>
    <text x="116.85" y="193" text-anchor="middle" font-family="Arial" font-size="6">B5</text>
  </g>
  
  <!-- Display 6 - Position X=150.8 -->
  <g id="display6">
    <rect x="150.8" y="139" width="57.9" height="29" fill="white" stroke="blue" stroke-width="2"/>
    <text x="179.75" y="156" text-anchor="middle" font-family="Arial" font-size="8" font-weight="bold">D6</text>
    <circle cx="152.3" cy="140.5" r="1" fill="white" stroke="red" stroke-width="1"/>
    <circle cx="207.2" cy="140.5" r="1" fill="white" stroke="red" stroke-width="1"/>
    <circle cx="152.3" cy="166.5" r="1" fill="white" stroke="red" stroke-width="1"/>
    <circle cx="207.2" cy="166.5" r="1" fill="white" stroke="red" stroke-width="1"/>
    <circle cx="179.75" cy="173" r="1.5" fill="white" stroke="green" stroke-width="1.5"/>
    <circle cx="183.25" cy="173" r="1.5" fill="white" stroke="green" stroke-width="1.5"/>
    <rect x="170.75" y="181" width="18" height="18" fill="white" stroke="purple" stroke-width="2"/>
    <circle cx="179.75" cy="190" r="8" fill="none" stroke="purple" stroke-width="1" stroke-dasharray="2,2"/>
    <text x="179.75" y="193" text-anchor="middle" font-family="Arial" font-size="6">B6</text>
  </g>
  
  <!-- Display 7 - Position X=213.7 -->
  <g id="display7">
    <rect x="213.7" y="139" width="57.9" height="29" fill="white" stroke="blue" stroke-width="2"/>
    <text x="242.65" y="156" text-anchor="middle" font-family="Arial" font-size="8" font-weight="bold">D7</text>
    <circle cx="215.2" cy="140.5" r="1" fill="white" stroke="red" stroke-width="1"/>
    <circle cx="270.1" cy="140.5" r="1" fill="white" stroke="red" stroke-width="1"/>
    <circle cx="215.2" cy="166.5" r="1" fill="white" stroke="red" stroke-width="1"/>
    <circle cx="270.1" cy="166.5" r="1" fill="white" stroke="red" stroke-width="1"/>
    <circle cx="242.65" cy="173" r="1.5" fill="white" stroke="green" stroke-width="1.5"/>
    <circle cx="246.15" cy="173" r="1.5" fill="white" stroke="green" stroke-width="1.5"/>
    <rect x="233.65" y="181" width="18" height="18" fill="white" stroke="purple" stroke-width="2"/>
    <circle cx="242.65" cy="190" r="8" fill="none" stroke="purple" stroke-width="1" stroke-dasharray="2,2"/>
    <text x="242.65" y="193" text-anchor="middle" font-family="Arial" font-size="6">B7</text>
  </g>
  
  <!-- Row 2 Select Button -->
  <circle cx="280" cy="153.5" r="14.5" fill="white" stroke="orange" stroke-width="3"/>
  <circle cx="280" cy="153.5" r="14.5" fill="none" stroke="orange" stroke-width="1" stroke-dasharray="3,3"/>
  <text x="280" y="157" text-anchor="middle" font-family="Arial" font-size="8" font-weight="bold">R2</text>
  <text x="280" y="171" text-anchor="middle" font-family="Arial" font-size="5">29mm hole</text>
  
  <!-- Legend -->
  <g id="legend" transform="translate(15, 105)">
    <text x="0" y="0" font-family="Arial" font-size="10" font-weight="bold">Legend:</text>
    
    <rect x="0" y="8" width="25" height="8" fill="white" stroke="blue" stroke-width="2"/>
    <text x="30" y="14" font-family="Arial" font-size="7">TFT Display (57.9×29.0mm)</text>
    
    <circle cx="12" cy="25" r="1" fill="white" stroke="red" stroke-width="1"/>
    <text x="30" y="27" font-family="Arial" font-size="7">Mount Hole (Ø2mm, 1.5mm from edge)</text>
    
    <circle cx="10" cy="38" r="1.5" fill="white" stroke="green" stroke-width="1.5"/>
    <circle cx="14" cy="38" r="1.5" fill="white" stroke="green" stroke-width="1.5"/>
    <text x="30" y="40" font-family="Arial" font-size="7">Wire Holes (Ø3mm)</text>
    
    <rect x="7" y="47" width="10" height="10" fill="white" stroke="purple" stroke-width="2"/>
    <circle cx="12" cy="52" r="5" fill="none" stroke="purple" stroke-width="1" stroke-dasharray="1,1"/>
    <text x="30" y="54" font-family="Arial" font-size="7">Task Button 18×18mm (16mm mount hole)</text>
    
    <circle cx="12" cy="68" r="7" fill="white" stroke="orange" stroke-width="2"/>
    <circle cx="12" cy="68" r="7" fill="none" stroke="orange" stroke-width="1" stroke-dasharray="2,2"/>
    <text x="30" y="70" font-family="Arial" font-size="7">Select Button Ø29mm (29mm mount hole)</text>
  </g>
  
  <!-- Dimensions -->
  <g id="dimensions" stroke="grey" stroke-width="0.5" fill="none" stroke-dasharray="2,2">
    <!-- Display width -->
    <line x1="25" y1="25" x2="82.9" y2="25"/>
    <text x="53.95" y="23" text-anchor="middle" font-family="Arial" font-size="6">57.9mm</text>
    
    <!-- Display height -->
    <line x1="20" y1="30" x2="20" y2="59"/>
    <text x="12" y="44.5" text-anchor="middle" font-family="Arial" font-size="6" transform="rotate(-90 12 44.5)">29mm</text>
    
    <!-- Spacing between displays -->
    <line x1="82.9" y1="22" x2="87.9" y2="22"/>
    <text x="85.4" y="20" text-anchor="middle" font-family="Arial" font-size="5">5mm</text>
  </g>
  
  <!-- Print instructions -->
  <text x="10" y="205" font-family="Arial" font-size="8" font-style="italic">
    Print at 100% scale on A4 landscape. Verify: TFT displays should measure exactly 57.9×29.0mm
  </text>
  
</svg> 