<?xml version="1.0" encoding="UTF-8"?>
<svg width="297mm" height="210mm" viewBox="0 0 297 210" xmlns="http://www.w3.org/2000/svg">
  <!-- A4 Landscape: 297mm x 210mm -->
  
  <!-- Page border and title -->
  <rect x="2" y="2" width="293" height="206" fill="none" stroke="black" stroke-width="0.5"/>
  <text x="148.5" y="15" text-anchor="middle" font-family="Arial" font-size="12" font-weight="bold">
    ChoreTracker A4 Template (297×210mm)
  </text>
  
  <!-- Grid lines for reference -->
  <defs>
    <pattern id="grid" width="10" height="10" patternUnits="userSpaceOnUse">
      <path d="M 10 0 L 0 0 0 10" fill="none" stroke="#e0e0e0" stroke-width="0.2"/>
    </pattern>
  </defs>
  <rect x="0" y="0" width="297" height="210" fill="url(#grid)"/>
  
  <!-- Calculate positions -->
  <!-- A4 width: 297mm, A4 height: 210mm -->
  <!-- Display dimensions (typical 1.9" TFT): 30mm x 62mm -->
  <!-- Total display area needed: 4×30 + 3×spacing = 120 + spacing -->
  <!-- Available width: 297 - 40 (margins) - 30 (select buttons) = 227mm -->
  <!-- Spacing between displays: (227-120)/3 = 35.7mm, use 36mm -->
  
  <!-- Row 1 - Y position: 40mm from top -->
  <g id="row1" transform="translate(40, 40)">
    <!-- Display 0 - Child 1 -->
    <g id="display0">
      <rect x="0" y="0" width="30" height="62" fill="none" stroke="blue" stroke-width="1"/>
      <text x="15" y="35" text-anchor="middle" font-family="Arial" font-size="8">D0</text>
      <text x="15" y="42" text-anchor="middle" font-family="Arial" font-size="5">Child 1</text>
      <!-- Mounting holes -->
      <circle cx="3" cy="3" r="1.25" fill="none" stroke="red" stroke-width="0.5"/>
      <circle cx="27" cy="3" r="1.25" fill="none" stroke="red" stroke-width="0.5"/>
      <circle cx="3" cy="59" r="1.25" fill="none" stroke="red" stroke-width="0.5"/>
      <circle cx="27" cy="59" r="1.25" fill="none" stroke="red" stroke-width="0.5"/>
      <!-- Wire hole -->
      <circle cx="15" cy="66" r="2" fill="none" stroke="green" stroke-width="0.5"/>
      <text x="15" y="72" text-anchor="middle" font-family="Arial" font-size="4">Wire</text>
      <!-- Task button square -->
      <rect x="10" y="75" width="10" height="10" fill="none" stroke="purple" stroke-width="0.8"/>
      <text x="15" y="82" text-anchor="middle" font-family="Arial" font-size="4">Btn 0</text>
      <circle cx="15" cy="90" r="1.5" fill="none" stroke="purple" stroke-width="0.5"/>
      <text x="15" y="94" text-anchor="middle" font-family="Arial" font-size="3">LED</text>
    </g>
    
    <!-- Display 1 - Child 2 -->
    <g id="display1" transform="translate(66, 0)">
      <rect x="0" y="0" width="30" height="62" fill="none" stroke="blue" stroke-width="1"/>
      <text x="15" y="35" text-anchor="middle" font-family="Arial" font-size="8">D1</text>
      <text x="15" y="42" text-anchor="middle" font-family="Arial" font-size="5">Child 2</text>
      <!-- Mounting holes -->
      <circle cx="3" cy="3" r="1.25" fill="none" stroke="red" stroke-width="0.5"/>
      <circle cx="27" cy="3" r="1.25" fill="none" stroke="red" stroke-width="0.5"/>
      <circle cx="3" cy="59" r="1.25" fill="none" stroke="red" stroke-width="0.5"/>
      <circle cx="27" cy="59" r="1.25" fill="none" stroke="red" stroke-width="0.5"/>
      <!-- Wire hole -->
      <circle cx="15" cy="66" r="2" fill="none" stroke="green" stroke-width="0.5"/>
      <!-- Task button -->
      <rect x="10" y="75" width="10" height="10" fill="none" stroke="purple" stroke-width="0.8"/>
      <text x="15" y="82" text-anchor="middle" font-family="Arial" font-size="4">Btn 1</text>
      <circle cx="15" cy="90" r="1.5" fill="none" stroke="purple" stroke-width="0.5"/>
    </g>
    
    <!-- Display 2 - Weather -->
    <g id="display2" transform="translate(132, 0)">
      <rect x="0" y="0" width="30" height="62" fill="none" stroke="blue" stroke-width="1"/>
      <text x="15" y="35" text-anchor="middle" font-family="Arial" font-size="8">D2</text>
      <text x="15" y="42" text-anchor="middle" font-family="Arial" font-size="5">Weather</text>
      <!-- Mounting holes -->
      <circle cx="3" cy="3" r="1.25" fill="none" stroke="red" stroke-width="0.5"/>
      <circle cx="27" cy="3" r="1.25" fill="none" stroke="red" stroke-width="0.5"/>
      <circle cx="3" cy="59" r="1.25" fill="none" stroke="red" stroke-width="0.5"/>
      <circle cx="27" cy="59" r="1.25" fill="none" stroke="red" stroke-width="0.5"/>
      <!-- Wire hole -->
      <circle cx="15" cy="66" r="2" fill="none" stroke="green" stroke-width="0.5"/>
      <!-- Task button -->
      <rect x="10" y="75" width="10" height="10" fill="none" stroke="purple" stroke-width="0.8"/>
      <text x="15" y="82" text-anchor="middle" font-family="Arial" font-size="4">Btn 2</text>
      <circle cx="15" cy="90" r="1.5" fill="none" stroke="purple" stroke-width="0.5"/>
    </g>
    
    <!-- Display 3 - Family -->
    <g id="display3" transform="translate(198, 0)">
      <rect x="0" y="0" width="30" height="62" fill="none" stroke="blue" stroke-width="1"/>
      <text x="15" y="35" text-anchor="middle" font-family="Arial" font-size="8">D3</text>
      <text x="15" y="42" text-anchor="middle" font-family="Arial" font-size="5">Family</text>
      <!-- Mounting holes -->
      <circle cx="3" cy="3" r="1.25" fill="none" stroke="red" stroke-width="0.5"/>
      <circle cx="27" cy="3" r="1.25" fill="none" stroke="red" stroke-width="0.5"/>
      <circle cx="3" cy="59" r="1.25" fill="none" stroke="red" stroke-width="0.5"/>
      <circle cx="27" cy="59" r="1.25" fill="none" stroke="red" stroke-width="0.5"/>
      <!-- Wire hole -->
      <circle cx="15" cy="66" r="2" fill="none" stroke="green" stroke-width="0.5"/>
      <!-- Task button -->
      <rect x="10" y="75" width="10" height="10" fill="none" stroke="purple" stroke-width="0.8"/>
      <text x="15" y="82" text-anchor="middle" font-family="Arial" font-size="4">Btn 3</text>
      <circle cx="15" cy="90" r="1.5" fill="none" stroke="purple" stroke-width="0.5"/>
    </g>
    
    <!-- Row 1 Select Button -->
    <g id="row1_select" transform="translate(240, 25)">
      <circle cx="0" cy="6" r="8" fill="none" stroke="orange" stroke-width="1.2"/>
      <text x="0" y="8" text-anchor="middle" font-family="Arial" font-size="5">R1</text>
      <text x="0" y="20" text-anchor="middle" font-family="Arial" font-size="4">Select</text>
      <circle cx="0" cy="25" r="1.5" fill="none" stroke="orange" stroke-width="0.5"/>
      <text x="0" y="30" text-anchor="middle" font-family="Arial" font-size="3">Wire</text>
    </g>
  </g>
  
  <!-- Row 2 - Y position: 130mm from top -->
  <g id="row2" transform="translate(40, 130)">
    <!-- Display 4 - Child 1 Tasks -->
    <g id="display4">
      <rect x="0" y="0" width="30" height="62" fill="none" stroke="blue" stroke-width="1"/>
      <text x="15" y="35" text-anchor="middle" font-family="Arial" font-size="8">D4</text>
      <text x="15" y="42" text-anchor="middle" font-family="Arial" font-size="5">Tasks</text>
      <!-- Mounting holes -->
      <circle cx="3" cy="3" r="1.25" fill="none" stroke="red" stroke-width="0.5"/>
      <circle cx="27" cy="3" r="1.25" fill="none" stroke="red" stroke-width="0.5"/>
      <circle cx="3" cy="59" r="1.25" fill="none" stroke="red" stroke-width="0.5"/>
      <circle cx="27" cy="59" r="1.25" fill="none" stroke="red" stroke-width="0.5"/>
      <!-- Wire hole -->
      <circle cx="15" cy="66" r="2" fill="none" stroke="green" stroke-width="0.5"/>
      <!-- Task button -->
      <rect x="10" y="75" width="10" height="10" fill="none" stroke="purple" stroke-width="0.8"/>
      <text x="15" y="82" text-anchor="middle" font-family="Arial" font-size="4">Btn 4</text>
      <circle cx="15" cy="90" r="1.5" fill="none" stroke="purple" stroke-width="0.5"/>
    </g>
    
    <!-- Display 5 - Child 2 Tasks -->
    <g id="display5" transform="translate(66, 0)">
      <rect x="0" y="0" width="30" height="62" fill="none" stroke="blue" stroke-width="1"/>
      <text x="15" y="35" text-anchor="middle" font-family="Arial" font-size="8">D5</text>
      <text x="15" y="42" text-anchor="middle" font-family="Arial" font-size="5">Tasks</text>
      <!-- Mounting holes -->
      <circle cx="3" cy="3" r="1.25" fill="none" stroke="red" stroke-width="0.5"/>
      <circle cx="27" cy="3" r="1.25" fill="none" stroke="red" stroke-width="0.5"/>
      <circle cx="3" cy="59" r="1.25" fill="none" stroke="red" stroke-width="0.5"/>
      <circle cx="27" cy="59" r="1.25" fill="none" stroke="red" stroke-width="0.5"/>
      <!-- Wire hole -->
      <circle cx="15" cy="66" r="2" fill="none" stroke="green" stroke-width="0.5"/>
      <!-- Task button -->
      <rect x="10" y="75" width="10" height="10" fill="none" stroke="purple" stroke-width="0.8"/>
      <text x="15" y="82" text-anchor="middle" font-family="Arial" font-size="4">Btn 5</text>
      <circle cx="15" cy="90" r="1.5" fill="none" stroke="purple" stroke-width="0.5"/>
    </g>
    
    <!-- Display 6 - Info -->
    <g id="display6" transform="translate(132, 0)">
      <rect x="0" y="0" width="30" height="62" fill="none" stroke="blue" stroke-width="1"/>
      <text x="15" y="35" text-anchor="middle" font-family="Arial" font-size="8">D6</text>
      <text x="15" y="42" text-anchor="middle" font-family="Arial" font-size="5">Info</text>
      <!-- Mounting holes -->
      <circle cx="3" cy="3" r="1.25" fill="none" stroke="red" stroke-width="0.5"/>
      <circle cx="27" cy="3" r="1.25" fill="none" stroke="red" stroke-width="0.5"/>
      <circle cx="3" cy="59" r="1.25" fill="none" stroke="red" stroke-width="0.5"/>
      <circle cx="27" cy="59" r="1.25" fill="none" stroke="red" stroke-width="0.5"/>
      <!-- Wire hole -->
      <circle cx="15" cy="66" r="2" fill="none" stroke="green" stroke-width="0.5"/>
      <!-- Task button -->
      <rect x="10" y="75" width="10" height="10" fill="none" stroke="purple" stroke-width="0.8"/>
      <text x="15" y="82" text-anchor="middle" font-family="Arial" font-size="4">Btn 6</text>
      <circle cx="15" cy="90" r="1.5" fill="none" stroke="purple" stroke-width="0.5"/>
    </g>
    
    <!-- Display 7 - Family Tasks -->
    <g id="display7" transform="translate(198, 0)">
      <rect x="0" y="0" width="30" height="62" fill="none" stroke="blue" stroke-width="1"/>
      <text x="15" y="35" text-anchor="middle" font-family="Arial" font-size="8">D7</text>
      <text x="15" y="42" text-anchor="middle" font-family="Arial" font-size="5">Family</text>
      <!-- Mounting holes -->
      <circle cx="3" cy="3" r="1.25" fill="none" stroke="red" stroke-width="0.5"/>
      <circle cx="27" cy="3" r="1.25" fill="none" stroke="red" stroke-width="0.5"/>
      <circle cx="3" cy="59" r="1.25" fill="none" stroke="red" stroke-width="0.5"/>
      <circle cx="27" cy="59" r="1.25" fill="none" stroke="red" stroke-width="0.5"/>
      <!-- Wire hole -->
      <circle cx="15" cy="66" r="2" fill="none" stroke="green" stroke-width="0.5"/>
      <!-- Task button -->
      <rect x="10" y="75" width="10" height="10" fill="none" stroke="purple" stroke-width="0.8"/>
      <text x="15" y="82" text-anchor="middle" font-family="Arial" font-size="4">Btn 7</text>
      <circle cx="15" cy="90" r="1.5" fill="none" stroke="purple" stroke-width="0.5"/>
    </g>
    
    <!-- Row 2 Select Button -->
    <g id="row2_select" transform="translate(240, 25)">
      <circle cx="0" cy="6" r="8" fill="none" stroke="orange" stroke-width="1.2"/>
      <text x="0" y="8" text-anchor="middle" font-family="Arial" font-size="5">R2</text>
      <text x="0" y="20" text-anchor="middle" font-family="Arial" font-size="4">Select</text>
      <circle cx="0" cy="25" r="1.5" fill="none" stroke="orange" stroke-width="0.5"/>
      <text x="0" y="30" text-anchor="middle" font-family="Arial" font-size="3">Wire</text>
    </g>
  </g>
  
  <!-- Legend -->
  <g id="legend" transform="translate(20, 170)">
    <text x="0" y="0" font-family="Arial" font-size="7" font-weight="bold">Legend:</text>
    
    <rect x="0" y="5" width="12" height="6" fill="none" stroke="blue" stroke-width="1"/>
    <text x="15" y="9" font-family="Arial" font-size="5">TFT Display (30×62mm)</text>
    
    <circle cx="6" cy="18" r="1.25" fill="none" stroke="red" stroke-width="0.5"/>
    <text x="15" y="20" font-family="Arial" font-size="5">Mounting Holes (2.5mm)</text>
    
    <circle cx="6" cy="28" r="2" fill="none" stroke="green" stroke-width="0.5"/>
    <text x="15" y="30" font-family="Arial" font-size="5">Wire Holes (4mm)</text>
    
    <rect x="3" y="33" width="6" height="6" fill="none" stroke="purple" stroke-width="0.8"/>
    <text x="15" y="37" font-family="Arial" font-size="5">Task Buttons (10×10mm)</text>
    
    <circle cx="6" cy="45" r="1.5" fill="none" stroke="purple" stroke-width="0.5"/>
    <text x="15" y="47" font-family="Arial" font-size="5">LED Holes (3mm)</text>
    
    <circle cx="6" cy="55" r="8" fill="none" stroke="orange" stroke-width="1.2"/>
    <text x="15" y="57" font-family="Arial" font-size="5">Row Select Buttons (16mm)</text>
  </g>
  
  <!-- Dimensions -->
  <g id="dimensions" stroke="black" stroke-width="0.3" fill="none">
    <!-- Overall dimensions -->
    <line x1="40" y1="25" x2="268" y2="25"/>
    <line x1="40" y1="23" x2="40" y2="27"/>
    <line x1="268" y1="23" x2="268" y2="27"/>
    <text x="154" y="22" text-anchor="middle" font-family="Arial" font-size="4">228mm (Display Area)</text>
    
    <!-- Display spacing -->
    <line x1="70" y1="30" x2="106" y2="30"/>
    <line x1="70" y1="28" x2="70" y2="32"/>
    <line x1="106" y1="28" x2="106" y2="32"/>
    <text x="88" y="27" text-anchor="middle" font-family="Arial" font-size="4">36mm</text>
  </g>
  
  <!-- Additional notes -->
  <text x="20" y="200" font-family="Arial" font-size="5">
    Notes: All dimensions in mm. Print at 100% scale. Verify display dimensions before cutting.
  </text>
  
</svg> 